<?xml version="1.0" encoding="utf-8"?>
<!-- Generator: Adobe Illustrator 27.0.0, SVG Export Plug-In . SVG Version: 6.00 Build 0)  -->
<svg version="1.1" id="Слой_2" xmlns="http://www.w3.org/2000/svg" xmlns:xlink="http://www.w3.org/1999/xlink" x="0px" y="0px"
	 viewBox="0 0 1920 870" style="enable-background:new 0 0 1920 870;" xml:space="preserve">
<style type="text/css">
	.st0{fill:#F0F4F8;}
	.st1{fill:#FFA500;}
</style>
<rect class="st0" width="1920" height="870"/>
<circle class="st1" cx="1173.5" cy="441.5" r="213.5"/>
<path class="st1" d="M1920,0v325.6c-56,48.2-128.8,77.4-208.5,77.4C1535.1,403,1392,260,1392,83.5c0-28.9,3.8-56.9,11-83.5H1920z"/>
<circle class="st1" cx="1729" cy="499" r="48"/>
<circle class="st1" cx="1642" cy="499" r="24"/>
<circle class="st1" cx="1671.5" cy="454.5" r="8.5"/>
<path class="st1" d="M107,499.5c0,77.6-43.3,145.2-107,179.8V319.7C63.7,354.3,107,421.9,107,499.5z"/>
<path class="st1" d="M226.7,0C221,97,140.5,174,42,174c-14.4,0-28.5-1.7-42-4.8V0H226.7z"/>
<circle class="st1" cx="104" cy="225" r="22"/>
<circle class="st1" cx="166.5" cy="242.5" r="9.5"/>
<circle class="st1" cx="153.5" cy="175.5" r="15.5"/>
</svg>
